<?xml version="1.0" encoding="UTF-8"?>
<svg xmlns="http://www.w3.org/2000/svg" xmlns:xlink="http://www.w3.org/1999/xlink" width="175pt" height="214pt" viewBox="0 0 175 214" version="1.1">
<defs>
<clipPath id="clip0">
  <rect width="175" height="214"/>
</clipPath>
</defs>
<g id="surface0" clip-path="url(#clip0)">
<path style="fill: none; stroke-width: 0.1; stroke-linecap: butt; stroke-linejoin: miter; stroke: rgb(100%,100%,100%); opacity: 1;stroke-miterlimit: 10;" d="M 0 0 L 175 0 L 175 0.657227 C 116.667297 0.653687 58.330185 0.469406 0 0.749634 L 0 0 Z M 0 0 " transform="matrix(1,0,0,1,0,0)"/>
<path style="stroke: none; fill-rule: nonzero; fill: rgb(100%,100%,100%); opacity: 1;" d="M 0 0 L 175 0 L 175 0.657227 C 116.667297 0.653687 58.330185 0.469406 0 0.749634 L 0 0 Z M 0 0 "/>
<path style="fill: none; stroke-width: 0.1; stroke-linecap: butt; stroke-linejoin: miter; stroke: rgb(0%,40.000004%,70.19608%); opacity: 1;stroke-miterlimit: 10;" d="M 0 0.749634 C 58.330185 0.469406 116.667297 0.653687 175 0.657227 L 175 134.247864 C 173.275314 146.839722 169.954926 159.368805 163.367325 170.346756 C 152.502335 189.3172 134.251663 203.874496 113.340897 210.252747 C 107.481583 212.152756 101.365189 212.988953 95.311066 214 L 79.71701 214 C 67.643433 212.262283 55.644333 209.104492 45.022491 202.942886 C 25.047684 191.76825 9.708618 172.496857 3.633224 150.397339 C 1.757645 143.849915 1.069122 137.054703 0 130.350342 L 0 0.749634 Z M 0 0.749634 " transform="matrix(1,0,0,1,0,0)"/>
<path style="stroke: none; fill-rule: nonzero; fill: rgb(0%,40.000004%,70.19608%); opacity: 1;" d="M 0 0.749634 C 58.330185 0.469406 116.667297 0.653687 175 0.657227 L 175 134.247864 C 173.275314 146.839722 169.954926 159.368805 163.367325 170.346756 C 152.502335 189.3172 134.251663 203.874496 113.340897 210.252747 C 107.481583 212.152756 101.365189 212.988953 95.311066 214 L 79.71701 214 C 67.643433 212.262283 55.644333 209.104492 45.022491 202.942886 C 25.047684 191.76825 9.708618 172.496857 3.633224 150.397339 C 1.757645 143.849915 1.069122 137.054703 0 130.350342 L 0 0.749634 Z M 0 0.749634 "/>
<path style="fill: none; stroke-width: 0.1; stroke-linecap: butt; stroke-linejoin: miter; stroke: rgb(100%,79.60785%,1.568628%); opacity: 1;stroke-miterlimit: 10;" d="M 39.149551 16.811691 C 45.200806 24.598694 50.476349 32.957733 56.305618 40.911499 C 58.868912 37.708282 61.170547 34.307312 63.702362 31.079849 C 65.867767 34.596786 67.951721 38.163315 70.133698 41.670761 C 76.243561 34.055557 81.6465 25.900665 87.760193 18.288986 C 93.592728 26.036758 99.18634 33.965225 105.138443 41.622009 C 107.469482 38.179169 109.484558 34.537628 111.741943 31.047607 C 114.134644 34.346481 116.528519 37.645416 119.007111 40.881607 C 124.680115 33.219482 129.952499 25.265137 135.492966 17.512039 C 135.771622 17.456909 136.328918 17.346619 136.607574 17.291473 C 145.984238 30.236328 155.684616 42.972733 164.862991 56.052704 C 163.203613 59.624542 159.541855 62.036682 156.985733 65.048004 C 149.986908 55.813187 143.425522 46.24968 136.326157 37.092331 C 130.534851 45.071381 125.203796 53.385483 119.206131 61.211227 C 116.789383 57.799194 114.473328 54.316498 111.985382 50.956146 C 109.652252 54.152573 107.523178 57.492874 105.144089 60.656311 C 99.225906 52.865479 93.590942 44.864639 87.732941 37.029221 C 81.67308 44.756454 76.23999 52.955673 70.137161 60.650162 C 67.841049 57.439896 65.729462 54.099228 63.326721 50.966293 C 60.981445 54.122375 58.911591 57.471268 56.599823 60.649185 C 56.316269 60.61824 55.749146 60.556366 55.465591 60.525436 C 49.930817 52.76355 44.633743 44.825378 38.999649 37.131027 C 31.860764 46.278061 25.422256 55.954849 18.238892 65.067017 C 15.492432 62.144699 12.724579 59.237137 10.183441 56.131927 C 19.941864 43.101547 29.434387 29.873886 39.149551 16.811691 Z M 39.149551 16.811691 " transform="matrix(1,0,0,1,0,0)"/>
<path style="stroke: none; fill-rule: nonzero; fill: rgb(100%,79.60785%,1.568628%); opacity: 1;" d="M 39.149551 16.811691 C 45.200806 24.598694 50.476349 32.957733 56.305618 40.911499 C 58.868912 37.708282 61.170547 34.307312 63.702362 31.079849 C 65.867767 34.596786 67.951721 38.163315 70.133698 41.670761 C 76.243561 34.055557 81.6465 25.900665 87.760193 18.288986 C 93.592728 26.036758 99.18634 33.965225 105.138443 41.622009 C 107.469482 38.179169 109.484558 34.537628 111.741943 31.047607 C 114.134644 34.346481 116.528519 37.645416 119.007111 40.881607 C 124.680115 33.219482 129.952499 25.265137 135.492966 17.512039 C 135.771622 17.456909 136.328918 17.346619 136.607574 17.291473 C 145.984238 30.236328 155.684616 42.972733 164.862991 56.052704 C 163.203613 59.624542 159.541855 62.036682 156.985733 65.048004 C 149.986908 55.813187 143.425522 46.24968 136.326157 37.092331 C 130.534851 45.071381 125.203796 53.385483 119.206131 61.211227 C 116.789383 57.799194 114.473328 54.316498 111.985382 50.956146 C 109.652252 54.152573 107.523178 57.492874 105.144089 60.656311 C 99.225906 52.865479 93.590942 44.864639 87.732941 37.029221 C 81.67308 44.756454 76.23999 52.955673 70.137161 60.650162 C 67.841049 57.439896 65.729462 54.099228 63.326721 50.966293 C 60.981445 54.122375 58.911591 57.471268 56.599823 60.649185 C 56.316269 60.61824 55.749146 60.556366 55.465591 60.525436 C 49.930817 52.76355 44.633743 44.825378 38.999649 37.131027 C 31.860764 46.278061 25.422256 55.954849 18.238892 65.067017 C 15.492432 62.144699 12.724579 59.237137 10.183441 56.131927 C 19.941864 43.101547 29.434387 29.873886 39.149551 16.811691 Z M 39.149551 16.811691 "/>
<path style="fill: none; stroke-width: 0.1; stroke-linecap: butt; stroke-linejoin: miter; stroke: rgb(100%,79.60785%,1.568628%); opacity: 1;stroke-miterlimit: 10;" d="M 25.509796 70.704117 C 37.673615 70.337051 49.849747 70.684723 62.01857 70.520248 C 64.040192 70.638321 66.616791 70.043015 67.933228 72.0448 C 73.072449 77.808884 78.25058 83.539902 83.419968 89.278748 C 72.917618 100.804016 61.324844 111.294632 50.633224 122.639496 C 47.056961 126.105911 46.282272 132.355118 49.940872 136.046753 C 54.195526 140.207993 58.18811 144.621689 62.148926 149.062439 C 60.583298 150.766754 58.960846 152.417465 57.373077 154.102264 C 58.920166 155.729095 60.395554 157.446106 62.149033 158.862518 C 64.284958 158.500778 65.514359 156.055054 67.1745 154.756302 C 73.077988 160.628082 78.557938 166.916168 84.192947 173.046448 C 82.961151 174.455231 81.710678 175.847549 80.462433 177.243637 C 82.757187 179.770126 85.149323 182.216827 87.771622 184.409409 C 90.201202 182.051514 92.606812 179.666824 94.882141 177.159195 C 93.612106 175.795547 92.336014 174.443466 91.074341 173.077103 C 96.812515 167.047226 102.224823 160.715027 108.047836 154.765778 C 109.710968 156.180862 111.300919 157.681046 112.966843 159.097046 C 114.66246 157.421448 116.344772 155.73288 118.009323 154.026932 C 116.427963 152.350266 114.816437 150.703079 113.252914 149.013306 C 117.163223 144.667877 121.10437 140.346634 125.274475 136.248535 C 127.948669 133.616714 128.508224 129.321289 127.020432 125.950134 C 125.890289 123.567322 123.892014 121.773941 122.081055 119.918808 C 111.930588 109.927872 102.025925 99.693527 91.913132 89.665573 C 97.259247 83.017395 103.18457 76.848618 108.939545 70.553772 C 122.532516 70.65451 136.134415 70.332809 149.721741 70.724167 C 146.43512 74.748474 142.458862 78.11937 138.784592 81.772125 C 135.78894 84.527924 133.127701 87.666519 129.859146 90.111511 C 127.698471 90.436615 125.504547 90.325867 123.329605 90.34494 C 123.153076 87.339539 122.87059 83.760162 119.948532 82.082397 C 115.677292 79.201553 109.491913 82.916031 109.669464 87.968552 C 109.300476 90.275787 111.181412 91.897476 112.603943 93.397705 C 125.721207 106.31427 138.596939 119.475006 151.75116 132.354279 C 147.725891 137.376648 143.156616 141.924896 138.945404 146.787811 C 134.856049 145.264633 130.08046 144.788452 126.776855 148.193436 C 128.441635 150.282104 130.305023 152.199432 132.190079 154.090836 C 126.600372 160.655319 120.724487 166.980911 114.900574 173.340958 C 113.510941 172.141617 112.142288 170.920547 110.772675 169.703903 C 108.983185 171.304779 107.285568 173.006424 105.694214 174.805344 C 107.037018 176.221619 108.383133 177.636307 109.714691 179.068207 C 102.522141 187.299301 95.130478 195.354797 87.794357 203.457993 C 80.142929 195.592026 72.963913 187.265213 65.651672 179.083145 C 66.980347 177.646317 68.317703 176.218369 69.648132 174.785233 C 68.049606 173.104355 66.426712 171.449036 64.813843 169.785309 C 63.262283 170.895706 61.800888 172.125671 60.253342 173.242859 C 54.600983 166.829773 48.713577 160.627335 43.173538 154.116577 C 44.953522 152.293427 46.758316 150.495941 48.554398 148.690155 C 45.725296 144.499969 40.464325 145.388351 36.340942 146.74086 C 32.11438 142.070099 27.978058 137.316925 23.674454 132.717392 C 35.547607 119.941879 48.31076 107.992188 60.53447 95.542114 C 62.674576 93.132187 66.427917 91.026962 65.631607 87.253204 C 65.326065 82.445175 59.228745 79.266968 55.258743 82.229218 C 52.363602 83.866592 52.171432 87.43103 52.096252 90.373962 C 49.18399 90.103958 45.528976 91.201797 43.469009 88.492203 C 37.575287 82.469742 31.218445 76.90094 25.509796 70.704117 Z M 25.509796 70.704117 " transform="matrix(1,0,0,1,0,0)"/>
<path style="stroke: none; fill-rule: nonzero; fill: rgb(100%,79.60785%,1.568628%); opacity: 1;" d="M 25.509796 70.704117 C 37.673615 70.337051 49.849747 70.684723 62.01857 70.520248 C 64.040192 70.638321 66.616791 70.043015 67.933228 72.0448 C 73.072449 77.808884 78.25058 83.539902 83.419968 89.278748 C 72.917618 100.804016 61.324844 111.294632 50.633224 122.639496 C 47.056961 126.105911 46.282272 132.355118 49.940872 136.046753 C 54.195526 140.207993 58.18811 144.621689 62.148926 149.062439 C 60.583298 150.766754 58.960846 152.417465 57.373077 154.102264 C 58.920166 155.729095 60.395554 157.446106 62.149033 158.862518 C 64.284958 158.500778 65.514359 156.055054 67.1745 154.756302 C 73.077988 160.628082 78.557938 166.916168 84.192947 173.046448 C 82.961151 174.455231 81.710678 175.847549 80.462433 177.243637 C 82.757187 179.770126 85.149323 182.216827 87.771622 184.409409 C 90.201202 182.051514 92.606812 179.666824 94.882141 177.159195 C 93.612106 175.795547 92.336014 174.443466 91.074341 173.077103 C 96.812515 167.047226 102.224823 160.715027 108.047836 154.765778 C 109.710968 156.180862 111.300919 157.681046 112.966843 159.097046 C 114.66246 157.421448 116.344772 155.73288 118.009323 154.026932 C 116.427963 152.350266 114.816437 150.703079 113.252914 149.013306 C 117.163223 144.667877 121.10437 140.346634 125.274475 136.248535 C 127.948669 133.616714 128.508224 129.321289 127.020432 125.950134 C 125.890289 123.567322 123.892014 121.773941 122.081055 119.918808 C 111.930588 109.927872 102.025925 99.693527 91.913132 89.665573 C 97.259247 83.017395 103.18457 76.848618 108.939545 70.553772 C 122.532516 70.65451 136.134415 70.332809 149.721741 70.724167 C 146.43512 74.748474 142.458862 78.11937 138.784592 81.772125 C 135.78894 84.527924 133.127701 87.666519 129.859146 90.111511 C 127.698471 90.436615 125.504547 90.325867 123.329605 90.34494 C 123.153076 87.339539 122.87059 83.760162 119.948532 82.082397 C 115.677292 79.201553 109.491913 82.916031 109.669464 87.968552 C 109.300476 90.275787 111.181412 91.897476 112.603943 93.397705 C 125.721207 106.31427 138.596939 119.475006 151.75116 132.354279 C 147.725891 137.376648 143.156616 141.924896 138.945404 146.787811 C 134.856049 145.264633 130.08046 144.788452 126.776855 148.193436 C 128.441635 150.282104 130.305023 152.199432 132.190079 154.090836 C 126.600372 160.655319 120.724487 166.980911 114.900574 173.340958 C 113.510941 172.141617 112.142288 170.920547 110.772675 169.703903 C 108.983185 171.304779 107.285568 173.006424 105.694214 174.805344 C 107.037018 176.221619 108.383133 177.636307 109.714691 179.068207 C 102.522141 187.299301 95.130478 195.354797 87.794357 203.457993 C 80.142929 195.592026 72.963913 187.265213 65.651672 179.083145 C 66.980347 177.646317 68.317703 176.218369 69.648132 174.785233 C 68.049606 173.104355 66.426712 171.449036 64.813843 169.785309 C 63.262283 170.895706 61.800888 172.125671 60.253342 173.242859 C 54.600983 166.829773 48.713577 160.627335 43.173538 154.116577 C 44.953522 152.293427 46.758316 150.495941 48.554398 148.690155 C 45.725296 144.499969 40.464325 145.388351 36.340942 146.74086 C 32.11438 142.070099 27.978058 137.316925 23.674454 132.717392 C 35.547607 119.941879 48.31076 107.992188 60.53447 95.542114 C 62.674576 93.132187 66.427917 91.026962 65.631607 87.253204 C 65.326065 82.445175 59.228745 79.266968 55.258743 82.229218 C 52.363602 83.866592 52.171432 87.43103 52.096252 90.373962 C 49.18399 90.103958 45.528976 91.201797 43.469009 88.492203 C 37.575287 82.469742 31.218445 76.90094 25.509796 70.704117 Z M 25.509796 70.704117 "/>
<path style="fill: none; stroke-width: 0.1; stroke-linecap: butt; stroke-linejoin: miter; stroke: rgb(100%,79.60785%,1.568628%); opacity: 1;stroke-miterlimit: 10;" d="M 87.141846 97.100571 L 87.854172 97.042877 C 92.680054 101.549683 97.215942 106.381897 101.775909 111.163925 C 97.087234 116.149521 92.338196 121.095276 87.359772 125.793716 C 82.656555 120.856689 77.755371 116.111191 73.112869 111.116806 C 77.814987 106.474747 82.200165 101.480942 87.141846 97.100571 Z M 87.141846 97.100571 " transform="matrix(1,0,0,1,0,0)"/>
<path style="stroke: none; fill-rule: nonzero; fill: rgb(100%,79.60785%,1.568628%); opacity: 1;" d="M 87.141846 97.100571 L 87.854172 97.042877 C 92.680054 101.549683 97.215942 106.381897 101.775909 111.163925 C 97.087234 116.149521 92.338196 121.095276 87.359772 125.793716 C 82.656555 120.856689 77.755371 116.111191 73.112869 111.116806 C 77.814987 106.474747 82.200165 101.480942 87.141846 97.100571 Z M 87.141846 97.100571 "/>
<path style="fill: none; stroke-width: 0.1; stroke-linecap: butt; stroke-linejoin: miter; stroke: rgb(100%,79.60785%,1.568628%); opacity: 1;stroke-miterlimit: 10;" d="M 68.682312 115.716446 C 69.871262 114.391663 70.951111 116.488937 71.847061 117.119461 C 75.765732 121.375549 80.067215 125.268936 83.828613 129.670975 C 79.075195 134.438599 74.371475 139.256104 69.692474 144.096802 C 64.507568 139.646805 60.107849 134.383118 55.147491 129.694733 C 59.469406 124.858276 64.093399 120.292404 68.682312 115.716446 Z M 68.682312 115.716446 " transform="matrix(1,0,0,1,0,0)"/>
<path style="stroke: none; fill-rule: nonzero; fill: rgb(100%,79.60785%,1.568628%); opacity: 1;" d="M 68.682312 115.716446 C 69.871262 114.391663 70.951111 116.488937 71.847061 117.119461 C 75.765732 121.375549 80.067215 125.268936 83.828613 129.670975 C 79.075195 134.438599 74.371475 139.256104 69.692474 144.096802 C 64.507568 139.646805 60.107849 134.383118 55.147491 129.694733 C 59.469406 124.858276 64.093399 120.292404 68.682312 115.716446 Z M 68.682312 115.716446 "/>
<path style="fill: none; stroke-width: 0.1; stroke-linecap: butt; stroke-linejoin: miter; stroke: rgb(100%,79.60785%,1.568628%); opacity: 1;stroke-miterlimit: 10;" d="M 91.554947 129.945328 C 96.182587 124.928177 100.974823 120.054214 105.910492 115.339478 C 110.698318 120.182251 115.526047 124.98877 120.180511 129.961853 C 115.396545 134.825729 110.702774 139.777725 105.874817 144.598068 C 101.007584 139.807755 96.23497 134.918213 91.554947 129.945328 Z M 91.554947 129.945328 " transform="matrix(1,0,0,1,0,0)"/>
<path style="stroke: none; fill-rule: nonzero; fill: rgb(100%,79.60785%,1.568628%); opacity: 1;" d="M 91.554947 129.945328 C 96.182587 124.928177 100.974823 120.054214 105.910492 115.339478 C 110.698318 120.182251 115.526047 124.98877 120.180511 129.961853 C 115.396545 134.825729 110.702774 139.777725 105.874817 144.598068 C 101.007584 139.807755 96.23497 134.918213 91.554947 129.945328 Z M 91.554947 129.945328 "/>
<path style="fill: none; stroke-width: 0.1; stroke-linecap: butt; stroke-linejoin: miter; stroke: rgb(100%,100%,100%); opacity: 1;stroke-miterlimit: 10;" d="M 0 130.350342 C 1.069122 137.054703 1.757645 143.849915 3.633224 150.397339 C 9.708618 172.496857 25.047684 191.76825 45.022491 202.942886 C 55.644333 209.104492 67.643433 212.262283 79.71701 214 L 0 214 L 0 130.350342 Z M 0 130.350342 " transform="matrix(1,0,0,1,0,0)"/>
<path style="stroke: none; fill-rule: nonzero; fill: rgb(100%,100%,100%); opacity: 1;" d="M 0 130.350342 C 1.069122 137.054703 1.757645 143.849915 3.633224 150.397339 C 9.708618 172.496857 25.047684 191.76825 45.022491 202.942886 C 55.644333 209.104492 67.643433 212.262283 79.71701 214 L 0 214 L 0 130.350342 Z M 0 130.350342 "/>
<path style="fill: none; stroke-width: 0.1; stroke-linecap: butt; stroke-linejoin: miter; stroke: rgb(100%,79.60785%,1.568628%); opacity: 1;stroke-miterlimit: 10;" d="M 73.623367 148.202957 C 78.388962 143.349701 83.067703 138.408691 87.929535 133.652267 C 92.62178 138.671585 97.804153 143.242096 102.178604 148.551392 C 97.356323 153.276077 92.731064 158.196808 87.894211 162.907501 C 83.078278 158.065079 78.133942 153.335999 73.623367 148.202957 Z M 73.623367 148.202957 " transform="matrix(1,0,0,1,0,0)"/>
<path style="stroke: none; fill-rule: nonzero; fill: rgb(100%,79.60785%,1.568628%); opacity: 1;" d="M 73.623367 148.202957 C 78.388962 143.349701 83.067703 138.408691 87.929535 133.652267 C 92.62178 138.671585 97.804153 143.242096 102.178604 148.551392 C 97.356323 153.276077 92.731064 158.196808 87.894211 162.907501 C 83.078278 158.065079 78.133942 153.335999 73.623367 148.202957 Z M 73.623367 148.202957 "/>
<path style="fill: none; stroke-width: 0.1; stroke-linecap: butt; stroke-linejoin: miter; stroke: rgb(100%,100%,100%); opacity: 1;stroke-miterlimit: 10;" d="M 163.367325 170.346756 C 169.954926 159.368805 173.275314 146.839722 175 134.247864 L 175 214 L 95.311066 214 C 101.365189 212.988953 107.481583 212.152756 113.340897 210.252747 C 134.251663 203.874496 152.502335 189.3172 163.367325 170.346756 Z M 163.367325 170.346756 " transform="matrix(1,0,0,1,0,0)"/>
<path style="stroke: none; fill-rule: nonzero; fill: rgb(100%,100%,100%); opacity: 1;" d="M 163.367325 170.346756 C 169.954926 159.368805 173.275314 146.839722 175 134.247864 L 175 214 L 95.311066 214 C 101.365189 212.988953 107.481583 212.152756 113.340897 210.252747 C 134.251663 203.874496 152.502335 189.3172 163.367325 170.346756 Z M 163.367325 170.346756 "/>
<path style="fill: none; stroke-width: 0.1; stroke-linecap: butt; stroke-linejoin: miter; stroke: rgb(0%,40.000004%,70.19608%); opacity: 1;stroke-miterlimit: 10;" d="M 86.499359 140.310226 C 87.031158 140.292786 88.094727 140.257889 88.626526 140.240448 C 88.830612 141.861649 89.019211 143.485474 89.211975 145.112167 C 90.772858 145.206207 92.335358 145.289413 93.898895 145.383438 C 93.889252 145.933228 93.869949 147.032822 93.860306 147.582611 C 92.220398 147.645233 90.58139 147.706223 88.944366 147.783798 C 88.873199 151.070679 88.878845 154.360291 88.756393 157.648056 C 88.169083 157.628265 86.994461 157.588684 86.40715 157.568893 C 86.358597 154.322998 86.354675 151.077454 86.277954 147.834106 C 84.698776 147.701447 83.120987 147.585953 81.544632 147.451096 C 81.471436 146.947739 81.325043 145.941025 81.251846 145.437668 C 82.900177 145.319946 84.549911 145.223969 86.201508 145.12529 C 86.303299 143.518066 86.395737 141.91362 86.499359 140.310226 Z M 86.499359 140.310226 " transform="matrix(1,0,0,1,0,0)"/>
<path style="stroke: none; fill-rule: nonzero; fill: rgb(0%,40.000004%,70.19608%); opacity: 1;" d="M 86.499359 140.310226 C 87.031158 140.292786 88.094727 140.257889 88.626526 140.240448 C 88.830612 141.861649 89.019211 143.485474 89.211975 145.112167 C 90.772858 145.206207 92.335358 145.289413 93.898895 145.383438 C 93.889252 145.933228 93.869949 147.032822 93.860306 147.582611 C 92.220398 147.645233 90.58139 147.706223 88.944366 147.783798 C 88.873199 151.070679 88.878845 154.360291 88.756393 157.648056 C 88.169083 157.628265 86.994461 157.588684 86.40715 157.568893 C 86.358597 154.322998 86.354675 151.077454 86.277954 147.834106 C 84.698776 147.701447 83.120987 147.585953 81.544632 147.451096 C 81.471436 146.947739 81.325043 145.941025 81.251846 145.437668 C 82.900177 145.319946 84.549911 145.223969 86.201508 145.12529 C 86.303299 143.518066 86.395737 141.91362 86.499359 140.310226 Z M 86.499359 140.310226 "/>
</g>
</svg>
